<?xml version="1.0" standalone="no"?>
<!DOCTYPE svg PUBLIC "-//W3C//DTD SVG 20010904//EN"
 "http://www.w3.org/TR/2001/REC-SVG-20010904/DTD/svg10.dtd">
<svg version="1.0" xmlns="http://www.w3.org/2000/svg"
 width="316.000000pt" height="104.000000pt" viewBox="0 0 316.000000 104.000000"
 preserveAspectRatio="xMidYMid meet">

<g transform="translate(0.000000,104.000000) scale(0.100000,-0.100000)"
fill="#FFFFFF" stroke="none">
<path d="M292 828 c-24 -62 -36 -108 -51 -198 -15 -89 -69 -370 -77 -397 -4
-16 -1 -25 11 -29 25 -10 34 6 47 77 6 35 15 68 19 73 4 5 30 3 58 -4 l51 -12
0 -61 c0 -70 9 -91 36 -85 16 3 19 12 19 68 -1 77 -9 191 -32 438 -16 175 -18
182 -39 182 -17 0 -26 -12 -42 -52z m54 -345 c7 -101 9 -97 -51 -93 -46 3 -50
12 -36 92 15 87 40 215 49 243 7 24 28 -109 38 -242z"/>
<path d="M2395 808 c-5 -15 -39 -211 -54 -315 -14 -89 -32 -176 -36 -171 -2 2
-13 68 -25 148 -32 227 -61 330 -92 330 -25 0 -23 -37 8 -139 15 -48 30 -108
34 -136 5 -27 15 -86 24 -130 8 -44 15 -108 16 -143 0 -48 4 -64 16 -69 40
-15 67 65 85 251 6 67 20 157 31 201 11 44 22 104 25 133 4 43 2 52 -11 52 -9
0 -19 -6 -21 -12z"/>
<path d="M1635 800 c-4 -6 -11 -52 -16 -103 -9 -101 -23 -177 -64 -370 -21
-96 -25 -131 -16 -140 19 -19 40 13 52 81 l11 62 43 0 c24 0 47 -5 50 -10 4
-6 9 -36 12 -68 6 -56 15 -72 42 -72 14 0 14 7 -8 195 -6 50 -18 164 -27 255
-9 91 -22 168 -28 172 -16 11 -44 10 -51 -2z m39 -182 c3 -24 9 -91 12 -150
l7 -108 -37 0 c-23 0 -39 5 -42 14 -7 19 36 286 46 286 4 0 10 -19 14 -42z"/>
<path d="M2516 787 c-29 -44 -38 -124 -34 -305 4 -165 6 -181 30 -234 38 -83
89 -101 147 -52 46 38 56 87 56 274 0 218 -22 287 -99 324 -48 23 -83 20 -100
-7z m130 -69 c22 -42 31 -341 13 -416 -15 -66 -38 -97 -67 -88 -43 14 -62 118
-62 343 0 155 8 199 39 206 26 5 61 -15 77 -45z"/>
<path d="M2797 803 c-18 -5 -18 -15 -12 -176 3 -95 8 -233 9 -307 4 -123 6
-135 22 -135 21 0 20 -11 8 181 -5 75 -3 113 4 118 13 8 16 -3 41 -126 28
-140 69 -222 87 -175 3 8 -6 47 -20 88 -13 41 -33 113 -42 161 -18 87 -18 87
4 131 17 33 22 62 22 116 0 65 -3 74 -26 96 -15 14 -33 25 -40 25 -7 0 -18 2
-26 4 -7 2 -21 2 -31 -1z m60 -41 c32 -20 20 -202 -13 -202 -11 0 -14 23 -14
105 0 102 3 112 27 97z"/>
<path d="M484 783 c-10 -21 -18 -534 -10 -569 4 -15 14 -24 26 -24 19 0 20 7
20 247 0 136 4 243 8 237 5 -5 16 -29 26 -54 10 -25 22 -54 26 -65 25 -61 85
-239 99 -295 14 -52 21 -66 38 -68 14 -2 26 4 33 18 6 12 16 133 22 291 11
250 10 271 -6 287 -29 29 -36 -2 -36 -174 0 -182 -9 -314 -21 -314 -5 0 -13
19 -19 43 -6 23 -17 62 -25 87 -8 25 -26 86 -41 135 -37 127 -89 235 -113 235
-10 0 -22 -8 -27 -17z"/>
<path d="M837 794 c-16 -17 -5 -33 26 -36 l32 -3 3 -256 c2 -250 2 -257 -18
-262 -27 -7 -25 -33 3 -41 28 -7 86 -7 115 0 35 10 28 42 -10 46 l-33 3 -5
130 c-3 72 -4 187 -2 257 l5 127 31 3 c20 2 31 9 31 18 0 12 -17 16 -85 18
-47 1 -89 0 -93 -4z"/>
<path d="M1090 603 c-8 -109 -14 -250 -14 -313 -1 -109 0 -115 19 -115 19 0
20 9 28 150 15 296 18 319 31 298 12 -16 76 -267 76 -296 0 -32 22 -87 35 -87
24 0 47 58 91 230 30 117 44 158 48 140 3 -14 9 -124 13 -245 l8 -220 24 -3
24 -4 -7 289 c-4 158 -9 303 -10 321 -3 30 -18 51 -37 52 -18 0 -68 -149 -105
-315 -21 -95 -24 -105 -32 -105 -4 0 -16 30 -26 68 -26 92 -89 281 -107 317
-8 16 -21 31 -30 33 -13 2 -17 -27 -29 -195z"/>
<path d="M1928 795 c-10 -10 4 -589 14 -602 6 -7 28 -13 49 -13 32 0 46 7 78
41 56 57 65 91 65 260 1 143 1 146 -30 205 -35 67 -92 113 -140 114 -17 0 -33
-2 -36 -5z m106 -66 c36 -42 49 -93 54 -203 6 -132 -10 -236 -42 -273 -43 -49
-52 -29 -59 123 -4 75 -7 190 -7 256 0 106 2 118 18 118 10 0 26 -10 36 -21z"/>
</g>
</svg>
