<?xml version="1.0" encoding="utf-8"?>
<svg id="Layer_1" data-name="Layer 1" viewBox="20.855 11.014 444.145 334.757" xmlns="http://www.w3.org/2000/svg">
  <defs>
    <style>.cls-1{fill:#ffffff00;}.cls-2{fill:#402a15;}.cls-3{fill:#0d7b6c;}.cls-4{fill:#66abad;}.cls-5{fill:#1685ba;}.cls-6{fill:#1685bb;}.cls-7{fill:#1785ba;}.cls-8{fill:#0e7b6c;}.cls-9{fill:#1686ba;}.cls-10{fill:#66abae;}.cls-11{fill:#65abad;}.cls-12{fill:#1585bb;}.cls-13{fill:#1784bb;}.cls-14{fill:#1685bc;}.cls-15{fill:#1585bc;}.cls-16{fill:#0d7c6c;}.cls-17{fill:#117b6b;}.cls-18{fill:#107b6c;}.cls-19{fill:#7db5cf;}.cls-20{fill:#a0d6e0;}</style>
  </defs>
  <path class="cls-1" d="M-15,503.73c-2.4,0-2.87-.47-2.87-2.87q.11-228.93,0-457.86c0-2.4.47-2.87,2.87-2.87q229.64.12,459.26,0c2.4,0,2.87.47,2.87,2.87q-.11,228.93,0,457.86c0,2.4-.47,2.87-2.87,2.87" transform="translate(17.87 -40.13)"/>
  <path class="cls-2" d="M230.79,338.54a156.09,156.09,0,0,0-.09-35.63c-3-26.79-10.43-51.86-28.16-73-15.45-18.39-35.45-29.2-58.47-34.92A183.65,183.65,0,0,0,99,190.11H97.2c-.72,0-1.57,0-1.56-1s.84-1,1.56-1l13.24-1.31a11.74,11.74,0,0,0,4.54-.95c-9.23-5-19.61-8.1-24.68-18.5,4.09,2.52,8.14,5.12,12.28,7.55,6.43,3.78,12.77,8,20.14,9.53,14.74,3.13,28.82,8.31,43,13.24,4.18,1.45,8.26,3.2,12.36,4.86.74.3,1.47,1.08,2.21.4s0-1.55-.27-2.23c-2.66-6.84-5.26-13.7-6.65-20.94-.44-2.28-1-4.59,1-7.11,1.21,3.35,2.38,6.38,3.39,9.46a68.54,68.54,0,0,0,18.33,29.24,167.73,167.73,0,0,1,27.14,33.12c.1.16.35.23.71.45.67-3.53,0-7,0-10.39-.6-21.26-.23-42.49,2.33-63.63,1.5-12.42,3.68-24.7,9-36.17,2.24-4.81,5.2-9.07,10.11-12-1.55,3.61-3.07,7.23-4.67,10.82-6.5,14.5-8.39,30-9.91,45.58-2.13,21.89-2.85,43.8-1,65.76.85,10.37,3,20.52,5,30.72l.76,4c1.5-.58,1.36-2,1.66-3.08,4.67-16.68,10.88-32.73,19.91-47.57A101.21,101.21,0,0,1,288,196.66a59.62,59.62,0,0,0,22.77-29.06c.34-.9,0-2.62,1.41-2.38,1.67.28.78,2,.67,3a60.71,60.71,0,0,1-4.17,17.24c-.3.71-.84,1.39-.52,2.39,13.23-4.13,26.46-8.37,40-1.12a167.9,167.9,0,0,0-16.91,1.92c-37.12,7-62.63,28-76.05,63.29-4.44,11.67-6.33,24.11-9,36.29-3,14-5.82,28.1-7,42.43-.28,3.45-.84,7,.53,10.35,4.3,1.52,6.8,5.55,10.78,7.61,4.45,2.32,8.74,4.91,13.47,6.66,2.13.78,2.87.41,2.75-2.11-.19-3.9-1-7.9.67-11.71s1.54-8.17,2.48-12.23c3.42-14.8,8.67-29,13.47-43.38,1-3,1.81-6,2.5-9.08,1-4.57-1.31-7.13-6-6.65-2.9.3-5.77.85-8.68,1.1-8.31.7-14.47-5.27-14.22-13.52,0-1.34.33-2.21,1.56-2.76,4.75-2.13,8.67-5.5,12.51-8.89a36.54,36.54,0,0,1,13.07-7.86c1.81-.58,2.5-1.31,1.64-3.45-2.78-6.89-2.65-6.68,4.78-7.27,5.47-.42,9.33.94,12,6.1,7.51,14.36,15.31,28.52,18.08,44.83a381.11,381.11,0,0,1,5.12,44.15c.38,7.35.51,14.7.75,22.05,2.17,6.88.2,13.19-3.11,19.09-5.09,9.08-13.45,12.81-23.51,13.3-7.67.38-15.28,0-21.9-4.48-4.35-2.92-9.1-4.5-14-6.14-8.4-2.82-16.57-6.38-23.54-12.1-1.75-1.43-3-1.87-4.53.37-1.82,2.76-4.89,3.61-7.91,4a32,32,0,0,1-17.75-2.76,28.52,28.52,0,0,0-3-1.67c-1.82-.82-3.08-.54-3.68,1.5-2.88,3.91-6,7.51-11.05,8.65-4.92-.12-9.95.91-14.67-1.38-7.31-2.61-9.94-8.91-12.17-15.5a3.1,3.1,0,0,1,.63-3c.62-9.8-.17-19.62.34-29.41.84-16.24,6.09-30.77,17.79-42.53a31.86,31.86,0,0,1,6.42-4.83c1.36-.82,2.13-.35,1.89,1.08-.76,4.55,1.13,6.89,5.23,9.05s6.93,6.82,11.11,9.52c1.38.9.74,2.82.32,4.26-2,6.7-7.38,9.47-13.54,10.66-3.24.63-3.71,2.23-3.47,4.79a13.47,13.47,0,0,0,4.08,8.29c4.61,4.73,8.49,10,10.12,16.51a90.53,90.53,0,0,1,1.39,9.91,5.15,5.15,0,0,1,.28,1.71c-.1,4.93.86,6,5.86,6.28,3.14.17,6.28,0,9.41,0,2,0,3.83-.76,4.5-2.69C229.1,344.27,230.44,341.55,230.79,338.54Z" transform="translate(17.87 -40.13)"/>
  <path class="cls-3" d="M193.1,363.34A20.83,20.83,0,0,0,203,355c2.3-1.79,4.63-.9,7-.1,4.85,1.57,9.68,3.16,14.92,3,4.88-.19,9.28-1.12,11.65-5.95.93-1.88,1.67-.5,2.36,0,2.92,2.06,5.58,4.45,8.79,6.15a109.58,109.58,0,0,0,23.22,9.42,15.07,15.07,0,0,1,6,3.2,22.92,22.92,0,0,0,12.71,5c7.22.75,14.55,1.1,21.56-2.21S322.41,365.06,325,358c1.63-4.46,1.05-9,1.53-13.42,14.85,1.6,29.72,3.11,44.33,6.35,6.14,1.36,12.29,2.85,17.95,5.7,2.23,1.13,4.86,2.33,4.84,5.41,0,2.88-2.4,4.2-4.55,5.3-7.78,4-16.27,5.68-24.76,7.17-25.8,4.52-51.86,6.28-78,7.48-32.24,1.47-64.46,1.15-96.66-.49-23.43-1.19-46.81-3.15-69.88-7.78a88.29,88.29,0,0,1-19.1-5.59,19.71,19.71,0,0,1-4.2-2.49c-2.93-2.31-2.85-4.9.14-7.19,4.26-3.28,9.33-4.69,14.43-6,18.16-4.57,36.67-6.82,55.32-8,1,7.65,4.23,13.83,11.31,17.55C182.57,365.52,187.85,364.2,193.1,363.34Z" transform="translate(17.87 -40.13)"/>
  <path class="cls-4" d="M398.38,170.08c8,.07,15,2.32,20.72,8,1.49,1.48,1.59,2.64,0,4-15.27,13.19-35.15,17.82-52.84,5.1-.75-.54-1.44-1.18-2.19-1.74-2.38-1.81-2.51-3.09.43-4.73C375.09,174.89,386.15,170.49,398.38,170.08Z" transform="translate(17.87 -40.13)"/>
  <path class="cls-4" d="M310.35,83.2c.16,10.56-4.5,19.12-11.27,26.73a69.34,69.34,0,0,1-12.82,11.36c-1.45,1-2.47,1.23-3.1-.83-2.67-8.74-4.05-17.54-1-26.46,3.94-11.67,12.65-18.34,23.78-22.47,1.65-.61,2.29,0,2.85,1.36A27.63,27.63,0,0,1,310.35,83.2Z" transform="translate(17.87 -40.13)"/>
  <path class="cls-5" d="M427.47,131.1c.07,11.56-5.6,18.84-14.74,23.84a53.79,53.79,0,0,1-18.53,5.89c-4.34.6-4.42.39-4.19-4.12.61-12,6.95-20.46,16.67-26.76A63.47,63.47,0,0,1,422.3,123c2.94-.93,4.64-.19,4.77,3.15C427.14,128.05,427.37,129.9,427.47,131.1Z" transform="translate(17.87 -40.13)"/>
  <path class="cls-3" d="M365.52,221.75c-8.26-.38-16.24-1.68-23.26-6.46a25.23,25.23,0,0,1-10.42-14.8c-.32-1.21-.88-2.56,1-3.09,10-2.8,20.08-4.25,30.08.06,9.32,4,12.11,13.33,12.43,21.75.06,1.58-.84,1.94-2.18,2C370.63,221.35,368.07,221.57,365.52,221.75Z" transform="translate(17.87 -40.13)"/>
  <path class="cls-6" d="M94.23,150.29c-4.78-9.66-5.2-19.65-2.25-29.88,1.08-3.76,1.31-3.84,4.53-1.54,10.53,7.52,18.18,17,20,30.25a41.87,41.87,0,0,1-2,19.28c-.56,1.68-1.18,1.72-2.42.72-5.36-4.29-11-8.26-15-14A16.81,16.81,0,0,1,94.23,150.29Z" transform="translate(17.87 -40.13)"/>
  <path class="cls-7" d="M215.5,174.65c-.44,7.07-4.74,15.64-10.09,23.81-.7,1.07-1.48,1.79-2.74.47-8.08-8.38-14.89-20.35-10.75-32.82a31.93,31.93,0,0,1,10.21-14.33c1.25-1.05,2.31-1,3.72,0C212.32,156.47,215.72,163.28,215.5,174.65Z" transform="translate(17.87 -40.13)"/>
  <path class="cls-6" d="M303,161c-.19,8.73-6,14.82-14.53,19-7.26,3.56-7.23,3.35-10.27-4.07-5.36-13,.79-25.14,9.18-33.06,1.77-1.68,3.77-3.11,5.67-4.64,1.15-.92,2-.74,2.82.57C299.92,145.18,303,151.88,303,161Z" transform="translate(17.87 -40.13)"/>
  <path class="cls-4" d="M347.28,149c-.8,16.62-8.78,25-24.1,28.35-2.09.46-3.07-.62-3.58-2.37-4.2-14.38,1.08-31.78,19.17-36.61,6.3-1.68,6.36-1.58,7.6,4.76C346.82,145.4,347.09,147.7,347.28,149Z" transform="translate(17.87 -40.13)"/>
  <path class="cls-4" d="M52.72,163.5c10,0,19,3.24,27.37,8.41,2.52,1.54,2.12,2.68.2,4.44-13,11.88-26.61,11-42.24,2.45a66.57,66.57,0,0,1-7.79-5.32c-3.22-2.41-3.24-2.84.27-4.56A49.58,49.58,0,0,1,52.72,163.5Z" transform="translate(17.87 -40.13)"/>
  <path class="cls-8" d="M358.87,146.91c.74-15.76,6.81-27.6,18.25-36.7,2.95-2.34,3.22-2.29,4.88,1.24,5.07,10.81,2.7,20.91-3,30.63-4,6.8-9.47,12.38-15.39,17.53-1.7,1.48-2.66,1.59-3.14-1A83.42,83.42,0,0,1,358.87,146.91Z" transform="translate(17.87 -40.13)"/>
  <path class="cls-4" d="M233,197.33c.43-9,6.27-14.66,13.87-19,.4-.23.85-.38,1.26-.59,9.41-4.82,7.68-4.26,10.69,4.91a28.4,28.4,0,0,1,.63,16.85c-2.4,8.43-8.47,13.34-16.32,16.4a2.53,2.53,0,0,1-3.08-1C236,209.88,233.18,204.39,233,197.33Z" transform="translate(17.87 -40.13)"/>
  <path class="cls-9" d="M421.87,235.39c-5-.1-9.8-.54-14.47-2.38-10.87-4.28-12.64-14.23-11.4-23a2.4,2.4,0,0,1,1.92-2.18c11-2.85,26.4,3.27,32.24,13a29.53,29.53,0,0,1,3.87,10.8c.29,1.87-.29,2.59-2.07,2.74C428.59,234.66,425.23,235,421.87,235.39Z" transform="translate(17.87 -40.13)"/>
  <path class="cls-10" d="M201.44,124.87c.41-13,7.45-21.66,18.24-27.77,5.65-3.2,5.7-3,7,3.47,1.48,7.53,2,15-.94,22.35-3.57,8.92-10.86,12.63-19.62,14.39a2.42,2.42,0,0,1-3.1-2.07C202.21,131.84,201.19,128.47,201.44,124.87Z" transform="translate(17.87 -40.13)"/>
  <path class="cls-8" d="M245,148.88c-.68-12.25,9.56-21.49,17-25.76,1.22-.7,1.9-.24,2.57.79,10.31,15.77,8.22,32.65-12.15,41.35-2.07.88-2.77-.65-3.47-1.94C246.4,158.75,244.69,154,245,148.88Z" transform="translate(17.87 -40.13)"/>
  <path class="cls-8" d="M184,136.75c.05,9.49-4.16,16.6-9.76,23.1-.92,1.07-1.78,1.56-3.07.12-12.13-13.58-13.9-30.15-1.14-44.43,1.87-2.09,3.08-2.12,4.92,0C180.36,121.85,184.3,128.67,184,136.75Z" transform="translate(17.87 -40.13)"/>
  <path class="cls-8" d="M40.54,126.94c1.2-9.42,1.13-8.94,9.09-6.44,10.66,3.35,19.78,8.87,24.51,19.7a31.83,31.83,0,0,1,2.44,11.19c.08,1.61-.46,2.55-2.21,2.12-9.79-2.37-19.35-5.31-27.13-12.12A19.07,19.07,0,0,1,40.54,126.94Z" transform="translate(17.87 -40.13)"/>
  <path class="cls-11" d="M128.59,152.58c-.35-4.85,1.19-9.24,3-13.56.7-1.66,1.71-3.3,3.92-2,8.17,4.62,15.09,10.28,15.95,20.54.67,8-2.2,15.06-6.53,21.61-1,1.51-1.93.76-2.84-.06C134.19,172,129,163.46,128.59,152.58Z" transform="translate(17.87 -40.13)"/>
  <path class="cls-12" d="M354.17,94c-.36,9.27-6.16,16.64-15.1,22A61.68,61.68,0,0,1,324.92,122c-1.58.48-3.16.55-2.83-2,1.27-9.68,4-18.71,11.44-25.63,4.83-4.47,10.65-6.57,17.09-7.1C353.82,87,354.13,87.58,354.17,94Z" transform="translate(17.87 -40.13)"/>
  <path class="cls-13" d="M122.31,94.5a39.32,39.32,0,0,1,.9-8.79c.28-1.38.66-2.29,2.25-1.6,12.44,5.35,24.3,17.21,22.6,34.23-.43,4.22-1.09,4.58-5.32,3.47C129.33,118.3,122.28,109.07,122.31,94.5Z" transform="translate(17.87 -40.13)"/>
  <path class="cls-14" d="M71.11,199.24c6.87-2.1,13.83-1.6,20.8-.66,2,.27,1.62,1.59,1.58,2.86-.28,9.67-7,17-17.57,18.73a43.19,43.19,0,0,1-14,.5c-1.89-.31-2.89-.75-3.08-2.86-.42-4.7.18-9.06,3.09-12.92C64.25,201.77,67.7,200.54,71.11,199.24Z" transform="translate(17.87 -40.13)"/>
  <path class="cls-15" d="M204.18,85.73A36.88,36.88,0,0,1,196,106.92c-1,1.27-1.64,1.25-2.65,0-4.4-5.66-8.3-11.54-9.7-18.75A19.51,19.51,0,0,1,193,67.19a2.27,2.27,0,0,1,3.29.38A26.61,26.61,0,0,1,204.18,85.73Z" transform="translate(17.87 -40.13)"/>
  <path class="cls-7" d="M266.07,81.54c-.14,8-4.86,13-11.11,17-2.16,1.37-4.61,2.26-6.81,3.56-2.56,1.52-3.6.44-4.62-1.94C239.42,90.61,242,82.42,248.46,75a44.55,44.55,0,0,1,9.17-7.5c1.54-1,2.79-1,3.78.66C263.84,72.33,266.17,76.5,266.07,81.54Z" transform="translate(17.87 -40.13)"/>
  <path class="cls-16" d="M17.42,225.28a38.2,38.2,0,0,1-8.32-.83c-1.38-.31-2.11-.73-1.32-2.32,5.57-11.22,13.09-20.35,26.43-21.82,9.07-1,9.61-1.08,6.73,8.17C37.31,220.13,29.7,225.24,17.42,225.28Z" transform="translate(17.87 -40.13)"/>
  <path class="cls-17" d="M267.41,341.42c.51,4.6-.31,9.25.62,13.88.47,2.3-1.47,1.76-2.83,1.36-5.1-1.51-9.68-4.17-14.29-6.71-4.24-2.33-7.75-5.61-11.17-9Z" transform="translate(17.87 -40.13)"/>
  <path class="cls-18" d="M230.79,338.54c.37,3.07-.67,6-1.4,8.85a4.28,4.28,0,0,1-3.43,3.18c-5.08.4-10.16.65-15.26-.44-3.8-.8-3.94-3.15-3.41-6.09a14.84,14.84,0,0,1,.78-2.3c6.82-.13,13.64-.32,20.46-.35C230.71,341.38,230.25,339.65,230.79,338.54Z" transform="translate(17.87 -40.13)"/>
  <path class="cls-19" d="M71.11,199.24c-3.07,1.85-6.4,3.27-9.13,5.65C63.94,201.26,67.16,199.67,71.11,199.24Z" transform="translate(17.87 -40.13)"/>
  <path class="cls-20" d="M94.23,150.29a12.75,12.75,0,0,1,2.89,4.83A5.44,5.44,0,0,1,94.23,150.29Z" transform="translate(17.87 -40.13)"/>
  <path class="cls-2" d="M193.1,363.34c-2.52,2.83-13.37,1.88-15.4-1.35C182.7,364,187.93,363.3,193.1,363.34Z" transform="translate(17.87 -40.13)"/>
  <path class="cls-2" d="M210,354.93l-7,.1C204.75,351.75,206.17,351.73,210,354.93Z" transform="translate(17.87 -40.13)"/>
</svg>